<?xml version="1.0" encoding="UTF-8"?>
<svg id="code" data-name="code" xmlns="http://www.w3.org/2000/svg" version="1.1" viewBox="0 0 768 768">

  <path d="M258.81,534.96c-9.94,3.41-18.51,1.58-25.59-4.77l-146.79-131.76c-7.35-6.59-7.35-22.27,0-28.86l147.6-132.45c9.76-8.75,24.25-7.04,31.98,1.64,9.03,10.13,6.71,24.16-3.31,33.12l-125.36,112.04,129.61,116.91c10.6,9.56,3,28.75-8.13,34.14Z"/>
  <g>
    <path d="M338.43,593.61c-4.42,13.37-17.62,18.76-29.47,14.77-11.18-3.77-17.41-16.74-13.21-29.43l134.61-406.18c4-12.06,17.62-16.64,27.82-13.52,10.76,3.29,18.73,15.7,14.77,27.66l-134.53,406.71Z"/>
    <path d="M534.44,530.49c-10.13,9.09-23.6,7.5-31.78-.58s-8.87-23.12.43-31.47l127.59-114.39-129.61-116.92c-10.88-9.82-2.67-29.53,8.67-34.32,9.36-3.07,17.94-1.38,25.04,4.99l146.08,130.99c8.22,7.37,8.19,23.06-.04,30.44l-146.39,131.26Z"/>
  </g>
</svg>