<?xml version="1.0" encoding="UTF-8"?>
<svg id="figma" 
data-name="figma" 
xmlns="http://www.w3.org/2000/svg" 
viewBox="0 0 18 18"
fill="currentColor"
>
  <path d="M9.77,11.81v2.46c0,1.57-1.1,2.9-2.56,3.26-1.55.38-3.12-.37-3.82-1.76s-.35-3.13.89-4.14c-.8-.65-1.24-1.6-1.25-2.61s.44-1.98,1.25-2.64c-1.14-.93-1.54-2.45-1.03-3.82S4.99.37,6.43.37h5.32c1.4.01,2.61.98,3.06,2.24.49,1.36.07,2.84-1.05,3.77,1.4,1.15,1.65,3.18.6,4.62s-3.06,1.82-4.59.82ZM8.27,5.62V1.88s-1.92,0-1.92,0c-1.04,0-1.84.89-1.83,1.9s.83,1.84,1.86,1.84h1.88ZM11.6,5.63c1.07,0,1.91-.84,1.91-1.88s-.82-1.87-1.86-1.87h-1.88s0,3.75,0,3.75h1.83ZM8.27,7.13h-1.85c-1.06,0-1.9.85-1.89,1.89s.84,1.86,1.89,1.86h1.85s0-3.75,0-3.75ZM13.51,9c0-1.03-.84-1.87-1.87-1.87s-1.87.84-1.87,1.87.84,1.87,1.87,1.87,1.87-.84,1.87-1.87ZM8.27,12.37h-1.88c-1.06,0-1.88.88-1.86,1.91s.87,1.85,1.9,1.84,1.84-.84,1.84-1.88v-1.86Z"/>
</svg>