<?xml version="1.0" encoding="UTF-8"?>
<svg id="github" data-name="github" xmlns="http://www.w3.org/2000/svg" version="1.1" viewBox="0 0 384 384">
  <!-- Generator: Adobe Illustrator 30.1.0, SVG Export Plug-In . SVG Version: 2.1.1 Build 136)  -->
  <path d="M148.71,309.61c-31.4,6.56-63.06.08-74.47-32.16-4.85-10.11-10.65-19.37-19.68-25.97-3.16-2.31-12.48-7.4-11.48-11.66.26-1.1,1.47-1.95,2.96-2.41,5.61-1.74,11.38-.73,16.94,1.32,10.97,4.05,18.76,12.41,24.84,22.21,6.9,11.12,17.56,18.77,30.55,20.52,10.77,1.19,21.14-.93,30.95-5.45,1.18-11.13,5.63-20.51,13.73-28.66-65.05-7.32-96.95-36.52-98.9-102.65-.66-22.37,6.77-43.65,22.39-60.2-7.09-18.23-5.3-38.86,2.01-56.83,7.94-1.21,15.13.66,22.59,2.93,13.17,4.52,24.97,11.05,37.02,19.15,35.73-9.5,72.93-9.62,108.85,0,12.38-8.25,24.73-15.13,38.57-19.59,6.96-1.95,13.52-3.55,20.85-2.46,7.42,18.25,8.85,38.14,2.44,56.72,15.36,16.31,22.76,37.38,22.19,59.56-.37,14.6-1.78,28.39-6.52,42.06-14.26,42.49-50.51,56.35-92.43,61,9.96,9.56,14.32,24.39,14.27,38l-.23,59.93c-.02,5.76,3.64,8.12,8.87,9.9l-125.72,1.27c5.96-1.45,9.85-4.52,9.78-10.4l-.37-36.14Z"/>
</svg>