<?xml version="1.0" encoding="UTF-8"?>
<svg id="_圖層_1" xmlns="http://www.w3.org/2000/svg" version="1.1" viewBox="0 0 32 28">
  <!-- Generator: Adobe Illustrator 30.1.0, SVG Export Plug-In . SVG Version: 2.1.1 Build 136)  -->
  <path d="M25.79,9.38c0-1.24-.96-2.24-2.13-2.24h-14.99c-1.18,0-2.14,1-2.14,2.24v9.67c0,1.27.96,2.27,2.18,2.27h14.91c1.22,0,2.18-.99,2.18-2.25v-9.69ZM24.5,9.39v9.3l-4.47-5.33,4.46-4.13s.01.1.01.16ZM16.18,15.13l-7.18-6.65h14.35l-7.17,6.65ZM13.29,14.25l2.43,2.25c.26.25.65.24.91,0l2.44-2.27,4.77,5.72c-.05.01-.11.02-.17.02h-14.99c-.06,0-.11,0-.15-.01l4.76-5.7ZM12.32,13.37l-4.48,5.36v-9.33c0-.06,0-.11.01-.17l4.46,4.14Z"/>
</svg>