<svg width="40" height="36" viewBox="0 0 40 36" fill="none" xmlns="http://www.w3.org/2000/svg">
<path d="M36 4.32407V4.68406C34.9867 10.5107 33.1333 22.1374 32.2667 27.4841C32.08 28.8707 31.7733 28.5507 31.52 28.4441L22.8533 24.8974L18.0267 31.3907C17.8933 31.5641 17.72 31.6441 17.5333 31.6307C17.3733 31.6307 17.2 31.4974 17.12 31.2974L12.6133 20.6707L4.32 17.2574C4.10667 17.1641 4 16.9641 4 16.7774C4 16.6307 4.10667 16.4174 4.29333 16.3374L35.1733 4.07073C35.5467 3.92406 35.8 4.00407 35.9867 4.32407H36ZM19.16 15.5507L26.16 10.7774L33.32 5.8974L5.84 16.7907L12.9467 19.7241L19.16 15.5374V15.5507ZM31.2933 27.2841L33.1733 15.6574L34.6133 6.68406L19.9067 22.5907L31.2933 27.2841ZM17.3733 29.3107L18.5733 22.5641L31.7333 8.28407L21.0533 15.4707L13.6267 20.4841L17.3867 29.3107H17.3733ZM21.8933 24.5107L19.4267 23.4974L18.4533 29.1374L21.8933 24.5107Z" fill="#454545"/>
</svg>
